<?xml version="1.0" encoding="utf-8"?>
<!-- Generator: Adobe Illustrator 18.1.1, SVG Export Plug-In . SVG Version: 6.00 Build 0)  -->
<svg version="1.1" id="Layer_1" xmlns="http://www.w3.org/2000/svg" xmlns:xlink="http://www.w3.org/1999/xlink" x="0px" y="0px"
	 viewBox="-301 299 35 35" enable-background="new -301 299 35 35" xml:space="preserve">
<g>
	<g id="Instagram_1_">
		<g id="Instagram">
			<path id="Head" fill="#895A4D" d="M-271.5,300.5h-24c-2.2002,0-4,1.7998-4,4v8h32v-8C-267.5,302.2998-269.2998,300.5-271.5,300.5
				z"/>
			<path id="Red_x5F_Stripes" fill="#E94F3D" d="M-297.5,301.09961V312.5h2v-12C-296.2002,300.5-296.8999,300.7002-297.5,301.09961z
				"/>
			<rect id="Yellow_x5F_Stripes" x="-295.5" y="300.5" fill="#F4C245" width="2" height="12"/>
			<rect id="Green_x5F_Stripes" x="-293.5" y="300.5" fill="#57BB63" width="2" height="12"/>
			<rect id="Blue_x5F_Stripes" x="-291.5" y="300.5" fill="#55ACEE" width="2" height="12"/>
			<circle id="Lens_1_" fill="#162838" cx="-273.5" cy="306.5" r="3"/>
			<circle id="Lens_x5F_Outer" fill="#2C4356" cx="-273.5" cy="306.5" r="1.5"/>
			<circle id="Lens_x5F_Inside" fill="#47637A" cx="-273.5" cy="306.5" r="0.5"/>
			<path id="Body" fill="#E5E0DC" d="M-299.5,312.5v16c0,2.2002,1.7998,4,4,4h24c2.2002,0,4-1.7998,4-4v-16H-299.5z"/>
			<g id="Shadow">
				<polygon fill="#75483D" points="-274.7998,312.5 -277.09961,310.09961 -277.09961,312.5 				"/>
				<path fill="#D0CBC5" d="M-279.5,312.5l-10.3999,10.40039l9.6001,9.59961h8.7998c2.2002,0,4-1.7998,4-4v-8.7002l-7.2998-7.2998
					H-279.5z"/>
			</g>
			<circle id="Lens" fill="#DCD7D3" cx="-283.5" cy="316.5" r="9"/>
			<circle id="Inside_x5F_Lens" fill="#162838" cx="-283.5" cy="316.5" r="7"/>
			<circle id="_x32_nd_Inner_Circle" fill="#2C4356" cx="-283.5" cy="316.5" r="4"/>
			<circle id="Middle_Circle" fill="#162838" cx="-283.5" cy="316.5" r="2"/>
			<circle id="Reflection" fill="#47637A" cx="-281" cy="314" r="1.5"/>
		</g>
	</g>
</g>
</svg>
