<?xml version="1.0" encoding="utf-8"?>
<!-- Generator: Adobe Illustrator 18.1.1, SVG Export Plug-In . SVG Version: 6.00 Build 0)  -->
<svg version="1.1" id="Layer_1" xmlns="http://www.w3.org/2000/svg" xmlns:xlink="http://www.w3.org/1999/xlink" x="0px" y="0px"
	 viewBox="-401 349 35 35" enable-background="new -401 349 35 35" xml:space="preserve">
<g>
	<g id="Dribbble_6_">
		<g id="Dribbble_7_">
			<circle id="Inside_3_" fill="#FF4081" cx="-383.5" cy="366.5" r="14"/>
			<path id="Outline_3_" fill="#E51067" d="M-383.5,382.5c-8.7998,0-16-7.2002-16-16s7.2002-16,16-16s16,7.2002,16,16
				S-374.7002,382.5-383.5,382.5L-383.5,382.5z M-370,368.7002c-0.5-0.2002-4.2002-1.2998-8.5-0.60059
				C-376.7002,373-376,377-375.7998,377.7998C-372.7998,375.7002-370.59961,372.5-370,368.7002L-370,368.7002z M-378.2002,379.09961
				c-0.2002-1.19922-1-5.39941-2.89941-10.39941h-0.10059c-7.69971,2.7002-10.5,8-10.69971,8.5
				c2.2998,1.7998,5.19971,2.89941,8.3999,2.89941C-381.59961,380.2002-379.7998,379.7998-378.2002,379.09961L-378.2002,379.09961z
				 M-393.7002,375.59961c0.30029-0.5,4.1001-6.69922,11.10059-9c0.19922-0.09961,0.39941-0.09961,0.5-0.19922
				c-0.30078-0.80078-0.7002-1.60059-1.10059-2.30078c-6.7998,2-13.5,2-14,1.90039c0,0.09961,0,0.2998,0,0.40039
				C-397.2002,370-395.7998,373.2002-393.7002,375.59961L-393.7002,375.59961z M-396.8999,363.7002
				c0.6001,0,6.19971,0,12.6001-1.7002c-2.30029-4-4.7002-7.40039-5.1001-7.90039C-393.1001,355.90039-396,359.5-396.8999,363.7002
				L-396.8999,363.7002z M-386.7002,353.2002c0.40039,0.5,2.90039,3.89941,5.10059,8
				c4.89941-1.7998,6.89941-4.60059,7.19922-4.90039c-2.39941-2.09961-5.59961-3.39941-9.09961-3.39941
				C-384.6001,352.90039-385.7002,353-386.7002,353.2002L-386.7002,353.2002z M-372.90039,357.90039
				c-0.2998,0.39941-2.59961,3.2998-7.59961,5.39941c0.2998,0.60059,0.59961,1.2998,0.90039,2
				c0.09961,0.2002,0.19922,0.5,0.2998,0.7002c4.5-0.59961,9.09961,0.2998,9.5,0.40039
				C-369.90039,363.2002-371,360.2002-372.90039,357.90039L-372.90039,357.90039z"/>
		</g>
	</g>
</g>
</svg>
