<?xml version="1.0" encoding="utf-8"?>
<!-- Generator: Adobe Illustrator 18.1.1, SVG Export Plug-In . SVG Version: 6.00 Build 0)  -->
<svg version="1.1" id="Layer_1" xmlns="http://www.w3.org/2000/svg" xmlns:xlink="http://www.w3.org/1999/xlink" x="0px" y="0px"
	 viewBox="-351 299 35 35" enable-background="new -351 299 35 35" xml:space="preserve">
<path fill="#55ACEE" d="M-317.5,306.5752c-1.17719,0.52246-2.44241,0.87598-3.77151,1.03223
	c1.35602-0.81152,2.397-2.09763,2.88773-3.62991c-1.26901,0.75-2.67242,1.29889-4.1694,1.5918
	c-1.1973-1.27539-2.90381-2.0722-4.79401-2.0722c-3.62592,0-6.56299,2.9375-6.56299,6.56345
	c0,0.51562,0.05719,1.01758,0.16849,1.49707c-5.45612-0.27344-10.293-2.8877-13.53171-6.85941
	c-0.564,0.9707-0.8887,2.09769-0.8887,3.30081c0,2.27832,1.1597,4.28711,2.91992,5.46484
	c-1.07523-0.03516-2.0874-0.3291-2.9722-0.82031c-0.00092,0.02637-0.00092,0.05566-0.00092,0.08203
	c0,3.18164,2.26221,5.83496,5.26611,6.43848c-0.55032,0.14941-1.1304,0.22852-1.73001,0.22852
	c-0.42331,0-0.83401-0.04004-1.23441-0.11621c0.8345,2.60742,3.2608,4.50586,6.1319,4.55957
	c-2.24518,1.75977-5.0762,2.81058-8.15189,2.81058c-0.52982,0-1.05319-0.0303-1.56641-0.09183
	c2.9043,1.8613,6.3555,2.94821,10.06351,2.94821c12.07471,0,18.67868-10.0029,18.67868-18.67868
	c0-0.28418-0.00778-0.56836-0.01907-0.85059C-319.49371,309.04785-318.38229,307.8916-317.5,306.5752z"/>
</svg>
