<?xml version="1.0" encoding="utf-8"?>
<!-- Generator: Adobe Illustrator 18.1.1, SVG Export Plug-In . SVG Version: 6.00 Build 0)  -->
<svg version="1.1" id="Layer_1" xmlns="http://www.w3.org/2000/svg" xmlns:xlink="http://www.w3.org/1999/xlink" x="0px" y="0px"
	 viewBox="-401 299 35 35" enable-background="new -401 299 35 35" xml:space="preserve">
<g>
	<path fill="#007BB5" d="M-367.5,330.5c0,1.10349-0.89651,2-2,2h-28c-1.104,0-2-0.89651-2-2v-28c0-1.10349,0.896-2,2-2h28
		c1.10349,0,2,0.89651,2,2V330.5z"/>
	<g>
		<rect x="-392.5" y="311.5" fill="#FFFFFF" width="4" height="14"/>
		<path fill="#FFFFFF" d="M-379.00098,311.5c-2.79102,0-3.27051,1.01758-3.49902,2v-2h-4v14h4v-8c0-1.29688,0.70312-2,2-2
			c1.26562,0,2,0.6875,2,2v8h4v-7C-374.5,314.5-375.02148,311.5-379.00098,311.5z"/>
		<circle fill="#FFFFFF" cx="-390.5" cy="308.5" r="2"/>
	</g>
</g>
</svg>
